<?xml version="1.0" encoding="UTF-8"?>
<svg version="1.1" xmlns="http://www.w3.org/2000/svg" width="32" height="32">
<path d="M0 0 C4.8846525 2.26787438 7.73212562 5.1153475 10 10 C10.75381535 15.5997712 10.77303575 20.33499991 8.375 25.5 C3.80134327 30.3143755 0.6912538 32.25156236 -6 32.5 C-12.6912538 32.25156236 -15.80134327 30.3143755 -20.375 25.5 C-22.77303575 20.33499991 -22.75381535 15.5997712 -22 10 C-17.52212837 0.3553534 -9.85292056 -1.32635469 0 0 Z " fill="#D80027" transform="translate(22,0)"/>
<path d="M0 0 C4.62 0 9.24 0 14 0 C12.97259133 6.164452 12.1886012 7.71398947 8 12 C4.92009688 14.05326875 3.90161828 14 0 14 C0 9.38 0 4.76 0 0 Z " fill="#ECE5E8" transform="translate(18,18)"/>
<path d="M0 0 C4.62 0 9.24 0 14 0 C14 4.62 14 9.24 14 14 C7.835548 12.97259133 6.28601053 12.1886012 2 8 C-0.05326875 4.92009688 0 3.90161828 0 0 Z " fill="#E29CAB" transform="translate(0,18)"/>
<path d="M0 0 C0 4.62 0 9.24 0 14 C-4.62 14 -9.24 14 -14 14 C-12.97259133 7.835548 -12.1886012 6.28601053 -8 2 C-4.92009688 -0.05326875 -3.90161828 0 0 0 Z " fill="#EDE5E7" transform="translate(14,0)"/>
<path d="M0 0 C6.164452 1.02740867 7.71398947 1.8113988 12 6 C14.05326875 9.07990312 14 10.09838172 14 14 C9.38 14 4.76 14 0 14 C0 9.38 0 4.76 0 0 Z " fill="#EDE4E7" transform="translate(18,0)"/>
<path d="M0 0 C3.63 0 7.26 0 11 0 C9.375 5.75 9.375 5.75 6 8 C4.99403703 7.0479279 3.99538437 6.08812654 3 5.125 C2.443125 4.59132813 1.88625 4.05765625 1.3125 3.5078125 C0 2 0 2 0 0 Z " fill="#3471BE" transform="translate(21,20)"/>
<path d="M0 0 C5.75 1.625 5.75 1.625 8 5 C7.0479279 6.00596297 6.08812654 7.00461563 5.125 8 C4.59132813 8.556875 4.05765625 9.11375 3.5078125 9.6875 C2 11 2 11 0 11 C0 7.37 0 3.74 0 0 Z " fill="#7266A0" transform="translate(20,0)"/>
<path d="M0 0 C4.62 0 9.24 0 14 0 C14 4.62 14 9.24 14 14 C13.34 14 12.68 14 12 14 C11.80341192 12.58456585 11.61812454 11.16755969 11.4375 9.75 C11.33308594 8.96109375 11.22867187 8.1721875 11.12109375 7.359375 C10.99972651 4.99467126 11.30366743 3.2488963 12 1 C11.01 1 10.02 1 9 1 C8.67 1.66 8.34 2.32 8 3 C5.36 2.67 2.72 2.34 0 2 C0 1.34 0 0.68 0 0 Z " fill="#EBE3E6" transform="translate(0,18)"/>
<path d="M0 0 C0.33 0.66 0.66 1.32 1 2 C1.66 2 2.32 2 3 2 C3 2.66 3 3.32 3 4 C3.66 4 4.32 4 5 4 C5 4.99 5 5.98 5 7 C2.36 7 -0.28 7 -3 7 C-1.125 1.125 -1.125 1.125 0 0 Z " fill="#3F74BD" transform="translate(3,5)"/>
<path d="M0 0 C0.66 0 1.32 0 2 0 C2.66 1.98 3.32 3.96 4 6 C1.03 6 -1.94 6 -5 6 C-3.38405168 3.95880212 -1.7143618 1.95927063 0 0 Z " fill="#3173C0" transform="translate(28,6)"/>
<path d="M0 0 C0 2.97 0 5.94 0 9 C-2.04119788 7.38405168 -4.04072937 5.7143618 -6 4 C-6 3.34 -6 2.68 -6 2 C-2.25 0 -2.25 0 0 0 Z " fill="#3172C0" transform="translate(12,0)"/>
<path d="M0 0 C2.62187494 1.04874998 3.79371361 1.64931313 5.25 4.125 C5.4975 4.74375 5.745 5.3625 6 6 C4.02 6.66 2.04 7.32 0 8 C0 5.36 0 2.72 0 0 Z " fill="#2D70BF" transform="translate(20,24)"/>
<path d="M0 0 C0.66 0 1.32 0 2 0 C2 2.64 2 5.28 2 8 C0.02 7.34 -1.96 6.68 -4 6 C-2.84826645 3.53199953 -1.95216435 1.95216435 0 0 Z " fill="#2D70BF" transform="translate(10,24)"/>
<path d="M0 0 C2.64 0 5.28 0 8 0 C7.25 1.9375 7.25 1.9375 6 4 C3.875 4.75 3.875 4.75 2 5 C1.34 3.35 0.68 1.7 0 0 Z " fill="#296DBE" transform="translate(0,20)"/>
<path d="M0 0 C1.98 0.99 1.98 0.99 4 2 C4 2.66 4 3.32 4 4 C5.32 4.66 6.64 5.32 8 6 C7.34 6.66 6.68 7.32 6 8 C4.99403703 7.0479279 3.99538437 6.08812654 3 5.125 C2.443125 4.59132813 1.88625 4.05765625 1.3125 3.5078125 C0 2 0 2 0 0 Z " fill="#E05770" transform="translate(21,20)"/>
<path d="M0 0 C2.86697492 1.28519565 4.97607712 2.57129254 7 5 C7 5.66 7 6.32 7 7 C6.01 6.67 5.02 6.34 4 6 C4 5.34 4 4.68 4 4 C3.34 4 2.68 4 2 4 C2 3.34 2 2.68 2 2 C1.34 2 0.68 2 0 2 C0 1.34 0 0.68 0 0 Z " fill="#DF4B66" transform="translate(4,5)"/>
</svg>
