<?xml version="1.0" encoding="UTF-8"?>
<svg version="1.1" xmlns="http://www.w3.org/2000/svg" width="32" height="32">
<path d="M0 0 C4.8846525 2.26787438 7.73212562 5.1153475 10 10 C10.75381535 15.5997712 10.77303575 20.33499991 8.375 25.5 C3.80134327 30.3143755 0.6912538 32.25156236 -6 32.5 C-12.6912538 32.25156236 -15.80134327 30.3143755 -20.375 25.5 C-22.77303575 20.33499991 -22.75381535 15.5997712 -22 10 C-17.52212837 0.3553534 -9.85292056 -1.32635469 0 0 Z " fill="#D8222D" transform="translate(22,0)"/>
<path d="M0 0 C9.24 0 18.48 0 28 0 C25.91784263 4.16431474 24.31411118 6.38014216 20 8 C14.69386376 8.72686798 9.08266156 9.17199683 4.375 6.25 C2 4 2 4 0 0 Z " fill="#263C94" transform="translate(2,24)"/>
<path d="M0 0 C3.2436346 2.01329044 4.22400492 3.76050983 5.9609375 7.234375 C-3.2790625 7.234375 -12.5190625 7.234375 -22.0390625 7.234375 C-17.72017843 -1.40339313 -9.00205961 -3.38008369 0 0 Z " fill="#243C95" transform="translate(24.0390625,0.765625)"/>
<path d="M0 0 C0.66 0 1.32 0 2 0 C2.103125 0.639375 2.20625 1.27875 2.3125 1.9375 C2.6528125 2.9584375 2.6528125 2.9584375 3 4 C3.99 4.33 4.98 4.66 6 5 C6 4.01 6 3.02 6 2 C6.66 2 7.32 2 8 2 C8.50615298 3.26839526 9.00469099 4.53983102 9.5 5.8125 C9.7784375 6.52019531 10.056875 7.22789063 10.34375 7.95703125 C11 10 11 10 11 13 C4.4 13 -2.2 13 -9 13 C-7 4 -7 4 -6 2 C-5.34 2 -4.68 2 -4 2 C-4 2.99 -4 3.98 -4 5 C-3.01 4.67 -2.02 4.34 -1 4 C-0.26676204 1.98491642 -0.26676204 1.98491642 0 0 Z " fill="#B9ACAC" transform="translate(15,10)"/>
<path d="M0 0 C1.85625 -0.00386719 1.85625 -0.00386719 3.75 -0.0078125 C7 0.125 7 0.125 10 1.125 C10 2.115 10 3.105 10 4.125 C3.4 4.125 -3.2 4.125 -10 4.125 C-10 3.135 -10 2.145 -10 1.125 C-6.49904689 -0.04198437 -3.6877768 -0.00768287 0 0 Z " fill="#D7BFC0" transform="translate(16,18.875)"/>
<path d="M0 0 C0 1.32 0 2.64 0 4 C-1.65 4 -3.3 4 -5 4 C-5 3.01 -5 2.02 -5 1 C-2 0 -2 0 0 0 Z " fill="#D3BBBC" transform="translate(11,19)"/>
</svg>
