<svg width="146" height="77" viewBox="0 0 146 77" fill="none" xmlns="http://www.w3.org/2000/svg">
<rect width="37" height="37" rx="18.5" transform="matrix(-1 0 0 1 37 20)" fill="#25388C"/>
<path opacity="0.5" d="M18.5 34.9321V47.9482C24.3804 44.7107 29.3357 46.8249 30.3929 48.0142V34.9321C26.2304 32.5535 19.5792 32.9279 18.5 34.9321Z" fill="#DBE5FF"/>
<path d="M18.5 34.9321V47.9482C22.2661 43.0589 27.0232 44.2482 28.5429 44.5124V31.5625C25.0411 30.4392 19.5792 32.9279 18.5 34.9321Z" fill="#F0F4FF"/>
<path d="M18.5 34.7832V47.75C20.5271 43.0767 25.8891 42.6159 26.9571 42.6817V28.9909C24.4462 28.8329 19.0231 32.3478 18.5 34.7832Z" fill="url(#paint0_linear_98390_3698)"/>
<path opacity="0.5" d="M18.5 34.9321V47.9482C12.6196 44.7107 7.66429 46.8249 6.60714 48.0142V34.9321C10.7696 32.5535 17.4208 32.9279 18.5 34.9321Z" fill="#DBE5FF"/>
<path d="M18.5 34.9321V47.9482C14.7339 43.0589 9.97679 44.2482 8.45714 44.5124V31.5625C11.9589 30.4392 17.4208 32.9279 18.5 34.9321Z" fill="#F0F4FF"/>
<path d="M18.5 34.7832V47.75C16.4729 43.0767 11.1109 42.6159 10.0429 42.6817V28.9909C12.5538 28.8329 17.9769 32.3478 18.5 34.7832Z" fill="url(#paint1_linear_98390_3698)"/>
<path d="M44.132 48.5V30.352H56.092V33.394H47.564V37.788H55.104V40.83H47.564V45.458H56.092V48.5H44.132ZM67.6839 46.238H67.5539C67.3113 47.018 66.8519 47.642 66.1759 48.11C65.4999 48.578 64.7113 48.812 63.8099 48.812C62.0939 48.812 60.7766 48.1967 59.8579 46.966C58.9566 45.7353 58.5059 43.976 58.5059 41.688C58.5059 39.4173 58.9566 37.6753 59.8579 36.462C60.7766 35.2313 62.0939 34.616 63.8099 34.616C64.7113 34.616 65.4999 34.85 66.1759 35.318C66.8519 35.7687 67.3113 36.384 67.5539 37.164H67.6839V29.26H71.0119V48.5H67.6839V46.238ZM64.8759 46.056C65.6733 46.056 66.3406 45.8653 66.8779 45.484C67.4153 45.1027 67.6839 44.5567 67.6839 43.846V39.53C67.6839 38.8713 67.4153 38.3427 66.8779 37.944C66.3406 37.5453 65.6733 37.346 64.8759 37.346C64.0093 37.346 63.3073 37.6407 62.7699 38.23C62.2499 38.802 61.9899 39.5733 61.9899 40.544V42.884C61.9899 43.8547 62.2499 44.626 62.7699 45.198C63.3073 45.77 64.0093 46.056 64.8759 46.056ZM86.6278 45.692H86.5238C86.3678 46.576 85.8738 47.3213 85.0418 47.928C84.2271 48.5173 83.1351 48.812 81.7658 48.812C80.6911 48.812 79.6944 48.6127 78.7758 48.214C77.8744 47.8153 77.0858 47.226 76.4098 46.446C75.7511 45.6487 75.2311 44.6693 74.8498 43.508C74.4684 42.3467 74.2778 41.0033 74.2778 39.478C74.2778 37.9527 74.4684 36.6093 74.8498 35.448C75.2484 34.2693 75.8031 33.2813 76.5138 32.484C77.2244 31.6867 78.0738 31.08 79.0618 30.664C80.0498 30.248 81.1504 30.04 82.3638 30.04C83.9931 30.04 85.3798 30.3953 86.5238 31.106C87.6678 31.8167 88.5691 32.8393 89.2278 34.174L86.4458 35.812C86.1164 35.032 85.6224 34.382 84.9638 33.862C84.3224 33.342 83.4558 33.082 82.3638 33.082C81.0118 33.082 79.9284 33.498 79.1138 34.33C78.3164 35.1447 77.9178 36.358 77.9178 37.97V40.882C77.9178 42.4767 78.3251 43.69 79.1398 44.522C79.9544 45.354 81.0464 45.77 82.4158 45.77C82.9531 45.77 83.4558 45.7093 83.9238 45.588C84.3918 45.4493 84.7991 45.25 85.1458 44.99C85.4924 44.73 85.7698 44.4093 85.9778 44.028C86.1858 43.6467 86.2898 43.196 86.2898 42.676V41.506H82.7278V38.62H89.5918V48.5H86.6278V45.692ZM93.3595 48.5V34.928H96.6875V37.736H96.8175C96.9042 37.372 97.0342 37.0253 97.2075 36.696C97.3982 36.3493 97.6409 36.046 97.9355 35.786C98.2302 35.526 98.5769 35.318 98.9755 35.162C99.3915 35.006 99.8682 34.928 100.406 34.928H101.134V38.074H100.094C98.9669 38.074 98.1175 38.2387 97.5455 38.568C96.9735 38.8973 96.6875 39.4347 96.6875 40.18V48.5H93.3595ZM113.271 48.5C112.543 48.5 111.963 48.292 111.529 47.876C111.113 47.4427 110.853 46.8707 110.749 46.16H110.593C110.368 47.044 109.909 47.7113 109.215 48.162C108.522 48.5953 107.664 48.812 106.641 48.812C105.255 48.812 104.189 48.448 103.443 47.72C102.698 46.992 102.325 46.0213 102.325 44.808C102.325 43.404 102.828 42.364 103.833 41.688C104.839 40.9947 106.269 40.648 108.123 40.648H110.437V39.66C110.437 38.8973 110.238 38.308 109.839 37.892C109.441 37.476 108.799 37.268 107.915 37.268C107.135 37.268 106.503 37.4413 106.017 37.788C105.549 38.1173 105.151 38.516 104.821 38.984L102.845 37.216C103.348 36.436 104.015 35.812 104.847 35.344C105.679 34.8587 106.78 34.616 108.149 34.616C109.987 34.616 111.382 35.032 112.335 35.864C113.289 36.696 113.765 37.892 113.765 39.452V45.848H115.117V48.5H113.271ZM107.759 46.394C108.505 46.394 109.137 46.2293 109.657 45.9C110.177 45.5707 110.437 45.0853 110.437 44.444V42.65H108.305C106.572 42.65 105.705 43.2047 105.705 44.314V44.756C105.705 45.3107 105.879 45.7267 106.225 46.004C106.589 46.264 107.101 46.394 107.759 46.394ZM126.235 46.238H126.105C125.862 47.018 125.403 47.642 124.727 48.11C124.051 48.578 123.262 48.812 122.361 48.812C120.645 48.812 119.327 48.1967 118.409 46.966C117.507 45.7353 117.057 43.976 117.057 41.688C117.057 39.4173 117.507 37.6753 118.409 36.462C119.327 35.2313 120.645 34.616 122.361 34.616C123.262 34.616 124.051 34.85 124.727 35.318C125.403 35.7687 125.862 36.384 126.105 37.164H126.235V29.26H129.563V48.5H126.235V46.238ZM123.427 46.056C124.224 46.056 124.891 45.8653 125.429 45.484C125.966 45.1027 126.235 44.5567 126.235 43.846V39.53C126.235 38.8713 125.966 38.3427 125.429 37.944C124.891 37.5453 124.224 37.346 123.427 37.346C122.56 37.346 121.858 37.6407 121.321 38.23C120.801 38.802 120.541 39.5733 120.541 40.544V42.884C120.541 43.8547 120.801 44.626 121.321 45.198C121.858 45.77 122.56 46.056 123.427 46.056ZM138.887 48.812C137.881 48.812 136.98 48.6473 136.183 48.318C135.403 47.9713 134.735 47.4947 134.181 46.888C133.643 46.264 133.227 45.5187 132.933 44.652C132.638 43.768 132.491 42.78 132.491 41.688C132.491 40.6133 132.629 39.6427 132.907 38.776C133.201 37.9093 133.617 37.1727 134.155 36.566C134.692 35.942 135.351 35.4653 136.131 35.136C136.911 34.7893 137.795 34.616 138.783 34.616C139.84 34.616 140.759 34.798 141.539 35.162C142.319 35.526 142.96 36.02 143.463 36.644C143.965 37.268 144.338 37.996 144.581 38.828C144.841 39.6427 144.971 40.518 144.971 41.454V42.546H135.949V42.884C135.949 43.872 136.226 44.6693 136.781 45.276C137.335 45.8653 138.159 46.16 139.251 46.16C140.083 46.16 140.759 45.9867 141.279 45.64C141.816 45.2933 142.293 44.8513 142.709 44.314L144.503 46.316C143.948 47.096 143.185 47.7113 142.215 48.162C141.261 48.5953 140.152 48.812 138.887 48.812ZM138.835 37.112C137.951 37.112 137.249 37.4067 136.729 37.996C136.209 38.5853 135.949 39.348 135.949 40.284V40.492H141.513V40.258C141.513 39.322 141.279 38.568 140.811 37.996C140.36 37.4067 139.701 37.112 138.835 37.112Z" fill="#25388C"/>
<defs>
<linearGradient id="paint0_linear_98390_3698" x1="18.5" y1="40.1518" x2="26.9571" y2="40.1518" gradientUnits="userSpaceOnUse">
<stop stop-color="#FAFBFF" stop-opacity="0.49"/>
<stop offset="1" stop-color="#FAFBFF"/>
</linearGradient>
<linearGradient id="paint1_linear_98390_3698" x1="18.5" y1="40.1518" x2="10.0429" y2="40.1518" gradientUnits="userSpaceOnUse">
<stop stop-color="#FAFBFF" stop-opacity="0.49"/>
<stop offset="1" stop-color="#FAFBFF"/>
</linearGradient>
</defs>
</svg>
